<svg width="503" height="80" viewBox="0 0 503 80" fill="none" xmlns="http://www.w3.org/2000/svg">
<path d="M114.716 79.9998L120.754 58.8677H95.0938V63.396L113.207 79.9998H114.716Z" fill="#0148BE"/>
<path d="M164.53 7.54717C166.04 0 167.549 0 161.511 0L129.813 22.6415L120.756 58.8679L114.719 80H148.152L164.53 7.54717Z" fill="#0060DB"/>
<path d="M110.189 0L0 80H51.3208L129.811 22.6415L161.509 0H110.189Z" fill="#1084FF"/>
<path d="M221.301 58L217.661 49.264H200.189L196.601 58H191.765L206.637 21.6H210.901L226.241 58H221.301ZM208.873 27.892L201.905 45.104H215.945L208.873 27.892ZM234.655 53.632H251.295V58H230.131V21.6H250.723V25.916H234.655V37.2H249.371V41.412H234.655V53.632ZM278.037 58L269.717 43.752H261.397V58H256.873V21.6H270.653C274.085 21.6 276.91 22.6573 279.129 24.772C281.382 26.852 282.509 29.504 282.509 32.728C282.509 35.2587 281.781 37.4773 280.325 39.384C278.869 41.256 276.928 42.5387 274.501 43.232L283.185 58H278.037ZM261.397 25.916V39.436H270.445C272.629 39.436 274.414 38.812 275.801 37.564C277.188 36.2813 277.881 34.652 277.881 32.676C277.881 30.7 277.188 29.088 275.801 27.84C274.414 26.5573 272.629 25.916 270.445 25.916H261.397ZM318.55 53.268C314.944 56.8387 310.386 58.624 304.874 58.624C299.396 58.624 294.855 56.8387 291.25 53.268C287.644 49.6973 285.842 45.2253 285.842 39.852C285.842 34.444 287.644 29.9547 291.25 26.384C294.855 22.7787 299.396 20.976 304.874 20.976C310.386 20.976 314.944 22.7613 318.55 26.332C322.155 29.9027 323.958 34.392 323.958 39.8C323.958 45.208 322.155 49.6973 318.55 53.268ZM294.578 50.044C297.316 52.7827 300.748 54.152 304.874 54.152C309.034 54.152 312.466 52.8 315.17 50.096C317.908 47.3573 319.278 43.9253 319.278 39.8C319.278 35.6747 317.908 32.26 315.17 29.556C312.466 26.8173 309.034 25.448 304.874 25.448C300.748 25.448 297.316 26.8173 294.578 29.556C291.874 32.2947 290.522 35.7093 290.522 39.8C290.522 43.8907 291.874 47.3053 294.578 50.044ZM344.115 39.956H363.615C363.511 45.4333 361.76 49.9227 358.363 53.424C355 56.8907 350.684 58.624 345.415 58.624C340.076 58.624 335.656 56.856 332.155 53.32C328.688 49.7493 326.955 45.2427 326.955 39.8C326.955 34.392 328.688 29.92 332.155 26.384C335.656 22.8133 340.042 21.028 345.311 21.028C348.223 21.028 350.927 21.6 353.423 22.744C355.954 23.8533 358.051 25.4133 359.715 27.424C361.414 29.4347 362.523 31.7227 363.043 34.288H358.363C357.843 32.5547 356.959 31.0293 355.711 29.712C354.463 28.36 352.938 27.32 351.135 26.592C349.367 25.864 347.46 25.5 345.415 25.5C342.78 25.5 340.406 26.1067 338.291 27.32C336.211 28.5333 334.582 30.232 333.403 32.416C332.224 34.6 331.635 37.0613 331.635 39.8C331.635 44.0293 332.9 47.4787 335.431 50.148C337.996 52.8173 341.324 54.152 345.415 54.152C347.634 54.152 349.662 53.736 351.499 52.904C353.371 52.072 354.914 50.9107 356.127 49.42C357.375 47.9293 358.224 46.2133 358.675 44.272H344.115V39.956ZM382.823 58.624C378.698 58.624 375.266 57.2893 372.527 54.62C369.823 51.9507 368.471 48.5533 368.471 44.428V21.6H373.099V44.116C373.099 47.0973 374.001 49.524 375.803 51.396C377.606 53.2333 379.946 54.152 382.823 54.152C385.631 54.152 387.937 53.2333 389.739 51.396C391.542 49.524 392.443 47.0973 392.443 44.116V21.6H397.071V44.428C397.071 48.5533 395.719 51.9507 393.015 54.62C390.311 57.2893 386.914 58.624 382.823 58.624ZM428.625 58L424.985 49.264H407.513L403.925 58H399.089L413.961 21.6H418.225L433.565 58H428.625ZM416.197 27.892L409.229 45.104H423.269L416.197 27.892ZM458.619 58L450.299 43.752H441.979V58H437.455V21.6H451.235C454.667 21.6 457.492 22.6573 459.711 24.772C461.964 26.852 463.091 29.504 463.091 32.728C463.091 35.2587 462.363 37.4773 460.907 39.384C459.451 41.256 457.51 42.5387 455.083 43.232L463.767 58H458.619ZM441.979 25.916V39.436H451.027C453.211 39.436 454.996 38.812 456.383 37.564C457.77 36.2813 458.463 34.652 458.463 32.676C458.463 30.7 457.77 29.088 456.383 27.84C454.996 26.5573 453.211 25.916 451.027 25.916H441.979ZM481.036 21.6C486.374 21.6 490.777 23.316 494.244 26.748C497.745 30.18 499.496 34.5307 499.496 39.8C499.496 45.0693 497.745 49.42 494.244 52.852C490.777 56.284 486.374 58 481.036 58H468.92V21.6H481.036ZM480.88 53.736C484.97 53.736 488.316 52.4187 490.916 49.784C493.516 47.1493 494.816 43.8213 494.816 39.8C494.816 37.1307 494.226 34.7387 493.048 32.624C491.869 30.5093 490.222 28.8627 488.108 27.684C485.993 26.4707 483.584 25.864 480.88 25.864H473.444V53.736H480.88Z" fill="#000A12"/>
</svg>
